# xmcd
#
# Track frame offsets:
#	150
#	19647
#	38859
#	60153
#	80453
#	96638
#	113126
#	126931
#	147473
#	166341
#	182274
#	207929
#	221804
#	235992
#	252124
#	270699
#	286236
#	304344
#	320994
#	338781
#
# Disc length: 4772 seconds
#
# Revision: 0
# Processed by: cddbd v1.5.2PL0 Copyright (c) Steve Scherf et al.
# Submitted via: EasyCDDAExtractor 15.3.0.1
#
DISCID=2b12a214
DTITLE=Yolandita Monge - Personalidad
DYEAR=2015
DGENRE=Latin
TTITLE0=Quitame Ese Hombre Del Corazon
TTITLE1=El Amor
TTITLE2=Este Amor Que Hay Que Callar
TTITLE3=Debil
TTITLE4=La Distancia
TTITLE5=Si
TTITLE6=Aceptame Como Soy
TTITLE7=La Sombra De Lo Que Fui
TTITLE8=Ahora, Ahora
TTITLE9=Como Lo Hago Yo
TTITLE10=Laberinto De Amor
TTITLE11=Paginas Del Alma
TTITLE12=Seras Mio
TTITLE13=Al Ritmo De La Fantasia
TTITLE14=Borinqueña
TTITLE15=Luz De Luna
TTITLE16=Sin Amor
TTITLE17=Una Historia De Amor
TTITLE18=Tanto Amor
TTITLE19=Cambiando La Rutina De Vivir
EXTD=
EXTT0=
EXTT1=
EXTT2=
EXTT3=
EXTT4=
EXTT5=
EXTT6=
EXTT7=
EXTT8=
EXTT9=
EXTT10=
EXTT11=
EXTT12=
EXTT13=
EXTT14=
EXTT15=
EXTT16=
EXTT17=
EXTT18=
EXTT19=
PLAYORDER=
